<?xml version="1.0" standalone="no"?>
<svg xmlns:xlink="http://www.w3.org/1999/xlink" id="wave" style="transform:rotate(180deg); transition: 0.3s" viewBox="0 0 1440 100" version="1.1" xmlns="http://www.w3.org/2000/svg"><defs><linearGradient id="sw-gradient-0" x1="0" x2="0" y1="1" y2="0"><stop stop-color="rgba(252, 197, 34, 1)" offset="0%"/><stop stop-color="rgba(252, 197, 34, 1)" offset="100%"/></linearGradient></defs><path style="transform:translate(0, 0px); opacity:1" fill="url(#sw-gradient-0)" d="M0,0L10,1.7C20,3,40,7,60,20C80,33,100,57,120,65C140,73,160,67,180,58.3C200,50,220,40,240,43.3C260,47,280,63,300,65C320,67,340,53,360,43.3C380,33,400,27,420,23.3C440,20,460,20,480,26.7C500,33,520,47,540,56.7C560,67,580,73,600,78.3C620,83,640,87,660,81.7C680,77,700,63,720,48.3C740,33,760,17,780,16.7C800,17,820,33,840,46.7C860,60,880,70,900,68.3C920,67,940,53,960,40C980,27,1000,13,1020,8.3C1040,3,1060,7,1080,16.7C1100,27,1120,43,1140,53.3C1160,63,1180,67,1200,61.7C1220,57,1240,43,1260,33.3C1280,23,1300,17,1320,21.7C1340,27,1360,43,1380,56.7C1400,70,1420,80,1430,85L1440,90L1440,100L1430,100C1420,100,1400,100,1380,100C1360,100,1340,100,1320,100C1300,100,1280,100,1260,100C1240,100,1220,100,1200,100C1180,100,1160,100,1140,100C1120,100,1100,100,1080,100C1060,100,1040,100,1020,100C1000,100,980,100,960,100C940,100,920,100,900,100C880,100,860,100,840,100C820,100,800,100,780,100C760,100,740,100,720,100C700,100,680,100,660,100C640,100,620,100,600,100C580,100,560,100,540,100C520,100,500,100,480,100C460,100,440,100,420,100C400,100,380,100,360,100C340,100,320,100,300,100C280,100,260,100,240,100C220,100,200,100,180,100C160,100,140,100,120,100C100,100,80,100,60,100C40,100,20,100,10,100L0,100Z"/></svg>